HIERARCHY
ROOT root
{
	OFFSET	0	13.1	24.9
	CHANNELS 6  Xposition Yposition Zposition Xrotation Yrotation Zrotation
	JOINT spine_1
	{
		OFFSET	0	9.99999	0
		CHANNELS 3  Xrotation Yrotation Zrotation
		JOINT spine_2
		{
			OFFSET	0	112	-10
			CHANNELS 3  Xrotation Yrotation Zrotation
			JOINT spine_3
			{
				OFFSET	0	206.5	19.3
				CHANNELS 3  Xrotation Yrotation Zrotation
				JOINT spine_4
				{
					OFFSET	0	110.4	14.6
					CHANNELS 3  Xrotation Yrotation Zrotation
					JOINT neck_1
					{
						OFFSET	0	71.8	-50.3
						CHANNELS 3  Xrotation Yrotation Zrotation
						JOINT neck_2
						{
							OFFSET	0	86.2	-25.8
							CHANNELS 3  Xrotation Yrotation Zrotation
							JOINT head_ee
							{
								OFFSET	0	179.8	-8.7
								CHANNELS 3  Xrotation Yrotation Zrotation
								End Site
								{
									OFFSET	1	0	0
								}
							}
						}
					}
					JOINT left_clavicle
					{
						OFFSET	-43.2	22.4	-70.8
						CHANNELS 3  Xrotation Yrotation Zrotation
						JOINT left_shoulder
						{
							OFFSET	-93.9	-5.79999	48.7
							CHANNELS 3  Xrotation Yrotation Zrotation
							JOINT left_elbow
							{
								OFFSET	-291.4	-30.8	15.2
								CHANNELS 3  Xrotation Yrotation Zrotation
								JOINT left_lowarm_twist
								{
									OFFSET	-110.7	-3.89999	13.6
									CHANNELS 3  Xrotation Yrotation Zrotation
									JOINT left_hand
									{
										OFFSET	-110.7	-3.89999	13.6
										CHANNELS 3  Xrotation Yrotation Zrotation
										JOINT left_ee
										{
											OFFSET	-80.8	-5.10001	12.1
											CHANNELS 3  Xrotation Yrotation Zrotation
											End Site
											{
												OFFSET	1	0	0
											}
										}
									}
								}
							}
						}
					}
					JOINT right_clavicle
					{
						OFFSET	43.2	22.4	-70.8
						CHANNELS 3  Xrotation Yrotation Zrotation
						JOINT right_shoulder
						{
							OFFSET	93.9	-5.79999	48.7
							CHANNELS 3  Xrotation Yrotation Zrotation
							JOINT right_elbow
							{
								OFFSET	291.4	-30.8	15.2
								CHANNELS 3  Xrotation Yrotation Zrotation
								JOINT right_lowarm_twist
								{
									OFFSET	110.7	-3.89999	13.6
									CHANNELS 3  Xrotation Yrotation Zrotation
									JOINT right_hand
									{
										OFFSET	110.7	-3.89999	13.6
										CHANNELS 3  Xrotation Yrotation Zrotation
										JOINT right_ee
										{
											OFFSET	80.8	-5.10001	12.1
											CHANNELS 3  Xrotation Yrotation Zrotation
											End Site
											{
												OFFSET	1	0	0
											}
										}
									}
								}
							}
						}
					}
				}
			}
		}
	}
	JOINT left_hip
	{
		OFFSET	-82.8	-127.5	0.300001
		CHANNELS 3  Xrotation Yrotation Zrotation
		JOINT left_knee
		{
			OFFSET	-28.2	-396.7	2.2
			CHANNELS 3  Xrotation Yrotation Zrotation
			JOINT left_ankle
			{
				OFFSET	-11.7	-411.3	35.4
				CHANNELS 3  Xrotation Yrotation Zrotation
				JOINT left_toes
				{
					OFFSET	0	-60	-88.6
					CHANNELS 3  Xrotation Yrotation Zrotation
					JOINT left_foot_ee
					{
						OFFSET	-22.5	-16.5	-42.2
						CHANNELS 3  Xrotation Yrotation Zrotation
						End Site
						{
							OFFSET	1	0	0
						}
					}
				}
			}
		}
	}
	JOINT right_hip
	{
		OFFSET	82.8	-127.5	0.300001
		CHANNELS 3  Xrotation Yrotation Zrotation
		JOINT right_knee
		{
			OFFSET	28.2	-396.7	2.2
			CHANNELS 3  Xrotation Yrotation Zrotation
			JOINT right_ankle
			{
				OFFSET	11.7	-411.3	35.4
				CHANNELS 3  Xrotation Yrotation Zrotation
				JOINT right_toes
				{
					OFFSET	0	-60	-88.6
					CHANNELS 3  Xrotation Yrotation Zrotation
					JOINT right_foot_ee
					{
						OFFSET	22.5	-16.5	-42.2
						CHANNELS 3  Xrotation Yrotation Zrotation
						End Site
						{
							OFFSET	1	0	0
						}
					}
				}
			}
		}
	}
}
MOTION
Frames: 10
Frame Time: 0.02
2858.94388974 691.508 -1907.16033721 -1.09952769082 25.603127517 -1.47331493848 -0.615881 0.247825 1.36851 -0.614853 0.160249 1.3815 -0.610237 -0.148438 1.38282 -0.612899 0.0717937 1.38891 4.41035 3.75819 0.0717013 4.45605 6.41383 0.290139 -0.0 0.0 -0.0 0.685986 24.0711 3.70694 3.0757 -27.3527 63.8787 2.2095 -47.5775 0.974084 -19.0165 -1.043 2.18538 -1.67501 5.65749 -8.63668 -0.0 0.0 -0.0 8.026 11.0963 -15.5318 -20.9469 24.903 -60.9796 0.776863 21.0484 -0.144325 -18.2267 0.985536 -2.10214 3.78171 -27.6591 -33.8554 0.0 0.0 0.0 7.25284 4.27425 3.77904 -11.0746 0.295231 1.6713 40.0073 24.8819 -5.16479 -23.1297 0.0 0.0 -0.0 0.0 -0.0 28.1282 21.087 0.811118 -67.7083 3.08725 -9.31681 7.24239 1.16625 1.05246 11.6587 -0.0 -0.0 0.0 0.0 0.0 
2838.51951314 692.221 -1908.01650004 -0.773508769983 25.7866881127 -1.68758272757 -0.62451 0.136696 1.11021 -0.623827 0.0657786 1.11665 -0.622089 -0.182396 1.10362 -0.623788 -0.00582234 1.11857 4.94373 4.48379 0.0383098 5.01218 7.65946 0.266964 -0.0 0.0 -0.0 0.91229 23.8486 3.99457 3.68755 -27.8264 62.8021 2.31629 -48.9203 1.05376 -19.4966 -1.07849 2.23558 -1.8227 6.34082 -9.29356 -0.0 0.0 -0.0 7.93823 12.4583 -15.2889 -21.3277 24.497 -61.0506 0.708482 19.3391 -0.120717 -18.2108 0.984393 -2.10046 3.81305 -28.3868 -34.1576 0.0 0.0 0.0 5.4767 3.35141 4.73158 -11.2597 0.297403 1.69962 40.6577 24.6803 -5.22017 -22.7533 0.0 0.0 -0.0 0.0 -0.0 30.6911 21.0803 -0.713222 -65.1844 2.78504 -9.07081 7.37893 0.64487 1.07028 11.2352 -0.0 -0.0 0.0 0.0 0.0 
2811.54172008 690.138 -1905.24282141 -0.609276679512 28.6626704178 -1.4404739035 -0.54702 0.0291563 0.836262 -0.546632 -0.0241144 0.836423 -0.54677 -0.207133 0.81073 -0.547679 -0.0764982 0.833266 4.18909 5.22923 0.342611 4.27068 8.73238 0.687174 -0.0 0.0 -0.0 1.13242 24.2625 4.32475 4.42967 -27.99 62.3076 2.53311 -51.4395 1.22033 -20.0247 -1.11801 2.29046 -1.90325 5.36909 -10.2897 -0.0 0.0 -0.0 7.75584 11.6973 -14.9287 -22.3137 23.9492 -60.8104 0.661458 18.1423 -0.105608 -18.4647 1.00273 -2.1273 3.79718 -28.652 -34.0778 0.0 0.0 0.0 4.42357 1.92811 5.15969 -12.2284 0.30728 1.84792 42.1877 24.2263 -5.34704 -22.3125 0.0 0.0 -0.0 0.0 -0.0 34.1146 23.8349 -1.92685 -61.5812 2.37313 -8.69731 7.04026 2.19932 1.02695 10.7437 -0.0 -0.0 0.0 0.0 0.0 
2793.10883341 689.403 -1906.76983079 -0.317806681593 31.0277158677 -1.51536481381 -0.649006 -0.129715 0.743268 -0.648716 -0.176747 0.733509 -0.650883 -0.334688 0.676211 -0.651451 -0.223696 0.72058 3.23884 5.6213 0.629056 3.32162 9.24268 1.08209 -0.0 0.0 -0.0 0.947037 23.235 3.99193 5.42396 -29.2969 61.4545 2.79912 -54.1912 1.43232 -20.2953 -1.13846 2.31845 -1.89797 5.19272 -10.3383 -0.0 0.0 -0.0 7.58293 11.9148 -14.5485 -23.2613 23.9307 -61.275 0.606416 16.7204 -0.0891183 -18.9282 1.03652 -2.17611 3.84063 -28.3564 -34.3446 0.0 0.0 0.0 3.75133 1.98069 5.64889 -13.0103 0.313424 1.96774 42.245 23.2215 -5.32024 -22.215 0.0 0.0 -0.0 0.0 -0.0 36.0703 23.7674 -2.58832 -56.9492 1.87971 -8.18082 5.96183 3.02921 0.875096 9.67479 -0.0 -0.0 0.0 0.0 0.0 
2756.01657757 693.1 -1917.97328539 -1.45546640183 32.8030122558 -0.149335189386 -0.538475 -0.131889 0.724939 -0.5382 -0.17775 0.715078 -0.540336 -0.330317 0.658655 -0.540873 -0.222152 0.702553 2.62468 6.16354 1.53544 2.70459 9.47348 2.16094 -0.0 0.0 -0.0 0.841653 22.4149 3.77707 7.90041 -29.945 61.0643 3.0832 -56.7737 1.66645 -21.0935 -1.19955 2.40043 -1.81194 3.20883 -10.6976 -0.0 0.0 -0.0 7.55557 11.8807 -14.4913 -23.9397 23.5679 -62.4421 0.541448 15.0145 -0.0713532 -18.3129 0.991754 -2.11126 3.91347 -27.6199 -34.7689 0.0 0.0 0.0 2.74167 0.0957028 5.41323 -14.7193 0.321154 2.22982 42.1749 23.7604 -5.33081 -21.27 0.0 0.0 -0.0 0.0 -0.0 35.772 22.3784 -2.74735 -42.0994 0.605703 -6.28964 2.83473 4.76714 0.422807 5.98535 -0.0 -0.0 0.0 0.0 0.0 
2757.37080361 693.1 -1920.2517702 -1.45042074316 32.4925266434 -0.15868809553 -0.538475 -0.131889 0.724939 -0.5382 -0.17775 0.715078 -0.540336 -0.330317 0.658655 -0.540873 -0.222152 0.702553 2.62468 6.16354 1.53544 2.70459 9.47348 2.16094 -0.0 0.0 -0.0 0.841653 22.4149 3.77707 7.90041 -29.945 61.0643 3.0832 -56.7737 1.66645 -21.0935 -1.19955 2.40043 -1.81194 3.20883 -10.6976 -0.0 0.0 -0.0 7.55557 11.8807 -14.4913 -23.9397 23.5679 -62.4421 0.541448 15.0145 -0.0713532 -18.3129 0.991754 -2.11126 3.91347 -27.6199 -34.7689 0.0 0.0 0.0 2.74167 0.0957028 5.41323 -14.7193 0.321154 2.22982 42.1749 23.7604 -5.33081 -21.27 0.0 0.0 -0.0 0.0 -0.0 35.772 22.3784 -2.74735 -42.0994 0.605703 -6.28964 2.83473 4.76714 0.422807 5.98535 -0.0 -0.0 0.0 0.0 0.0 
2740.9496185 691.681 -1929.13853639 -1.77063155965 33.0747616793 0.0139254152422 -0.626185 -0.0527369 0.485566 -0.626058 -0.0835275 0.481227 -0.626708 -0.187752 0.450894 -0.626973 -0.114186 0.474887 2.43938 6.47015 1.65685 2.5258 9.92672 2.32705 -0.0 0.0 -0.0 0.845694 21.5494 3.70829 9.60266 -29.6809 61.5955 2.98667 -55.9339 1.58609 -21.3518 -1.21957 2.42678 -1.8296 3.93969 -10.473 -0.0 0.0 -0.0 7.55417 11.1063 -14.5209 -24.0373 23.4316 -62.2253 0.508404 14.1361 -0.0630374 -17.7461 0.951139 -2.05111 3.83824 -26.4834 -34.098 0.0 0.0 0.0 2.17525 0.856289 5.55131 -15.7332 0.322046 2.38538 41.9755 24.0872 -5.3232 -20.5327 0.0 0.0 -0.0 0.0 -0.0 34.5268 21.4122 -1.96176 -30.9886 -0.00493342 -4.6981 0.66005 5.10598 0.0991769 3.12249 -0.0 -0.0 0.0 0.0 0.0 
2731.14640919 691.096 -1941.25673355 -2.4785289036 33.3421460492 0.78635634192 -0.465757 0.0309083 0.34226 -0.465692 0.00906685 0.343533 -0.465598 -0.0660815 0.33724 -0.465757 -0.0119918 0.343443 3.03538 6.68729 1.66903 3.13209 10.2321 2.32527 -0.0 0.0 -0.0 1.15483 20.7207 4.08401 10.4582 -30.0532 61.4211 3.07375 -56.6931 1.65855 -22.0148 -1.27148 2.494 -1.76421 3.17369 -10.3927 -0.0 0.0 -0.0 7.85087 11.7376 -15.1311 -24.5698 23.2302 -63.2596 0.413978 11.5893 -0.0420116 -17.3873 0.925735 -2.01283 3.92332 -26.0319 -34.639 0.0 0.0 0.0 2.44019 -0.3748 5.44201 -16.8386 0.31988 2.55497 41.8786 25.0053 -5.34484 -19.5986 0.0 0.0 -0.0 0.0 -0.0 33.0238 18.8502 -2.03625 -18.6976 -0.308864 -2.83997 -3.65836 5.45083 -0.556185 -1.51964 0.0 0.0 0.0 0.0 0.0 
2712.54367849 686.26 -1957.51418445 -2.82390454795 34.2993241731 1.20885106972 -0.434574 0.048853 0.343321 -0.434509 0.0269078 0.345734 -0.434305 -0.0489624 0.343305 -0.434469 0.00587043 0.34673 2.22569 7.10666 1.92316 2.32716 10.8423 2.68036 -0.0 0.0 -0.0 1.39991 17.2042 4.1784 11.3804 -30.9497 60.7005 2.79288 -54.1306 1.42726 -21.5187 -1.23256 2.44375 -1.72449 1.95477 -10.6924 -0.0 0.0 -0.0 7.3669 12.3898 -14.0636 -24.9626 23.253 -64.4964 0.413759 11.5834 -0.0419676 -16.6682 0.875559 -1.93565 4.14772 -24.8705 -36.1051 0.0 0.0 0.0 1.93153 -0.804145 5.46768 -19.482 0.301442 2.96009 42.0526 24.6104 -5.34746 -18.2395 0.0 0.0 -0.0 0.0 -0.0 33.3242 18.4827 -2.44278 -7.34152 -0.231921 -1.10207 -7.99312 7.70502 -1.23837 -4.3326 0.0 0.0 0.0 0.0 0.0 
2718.66793908 686.26 -1967.15712138 -2.78483177914 33.1033966796 1.1384362928 -0.434574 0.048853 0.343321 -0.434509 0.0269078 0.345734 -0.434305 -0.0489624 0.343305 -0.434469 0.00587043 0.34673 2.22569 7.10666 1.92316 2.32716 10.8423 2.68036 -0.0 0.0 -0.0 1.39991 17.2042 4.1784 11.3804 -30.9497 60.7005 2.79288 -54.1306 1.42726 -21.5187 -1.23256 2.44375 -1.72449 1.95477 -10.6924 -0.0 0.0 -0.0 7.3669 12.3898 -14.0636 -24.9626 23.253 -64.4964 0.413759 11.5834 -0.0419676 -16.6682 0.875559 -1.93565 4.14772 -24.8705 -36.1051 0.0 0.0 0.0 1.93153 -0.804145 5.46768 -19.482 0.301442 2.96009 42.0526 24.6104 -5.34746 -18.2395 0.0 0.0 -0.0 0.0 -0.0 33.3242 18.4827 -2.44278 -7.34152 -0.231921 -1.10207 -7.99312 7.70502 -1.23837 -4.3326 0.0 0.0 0.0 0.0 0.0 
